<svg width="18" height="18" viewBox="0 0 18 18" fill="none" xmlns="http://www.w3.org/2000/svg">
<mask id="mask0_83_424" style="mask-type:luminance" maskUnits="userSpaceOnUse" x="2" y="0" width="14" height="18">
<rect x="2.25" width="13.5" height="18" fill="white"/>
</mask>
<g mask="url(#mask0_83_424)">
<path fill-rule="evenodd" clip-rule="evenodd" d="M13.4543 9.44646C13.4473 8.15623 14.0309 7.1824 15.2121 6.46521C14.5512 5.51951 13.5527 4.9992 12.2344 4.89725C10.9863 4.79881 9.62227 5.62498 9.12305 5.62498C8.5957 5.62498 7.38633 4.9324 6.43711 4.9324C4.47539 4.96404 2.39062 6.49685 2.39062 9.61521C2.39062 10.5363 2.55937 11.4879 2.89687 12.4699C3.34688 13.7601 4.97109 16.9242 6.66563 16.8715C7.55156 16.8504 8.17734 16.2422 9.33047 16.2422C10.4484 16.2422 11.0285 16.8715 12.0164 16.8715C13.725 16.8469 15.1945 13.9711 15.6234 12.6773C13.3313 11.598 13.4543 9.51326 13.4543 9.44647L13.4543 9.44646ZM11.4644 3.67383C12.4242 2.53477 12.3363 1.49766 12.3082 1.125C11.4609 1.17422 10.4801 1.70156 9.92108 2.35195C9.30585 3.04805 8.94374 3.90937 9.02108 4.87969C9.93866 4.95 10.7754 4.47891 11.4644 3.67383Z" fill="black"/>
</g>
</svg>
