<svg
                        xmlns="http://www.w3.org/2000/svg"
                        width="24"
                        height="24"
                        viewBox="0 0 24 24"
                        fill="none"
                        className="w-5 h-5 sm:w-5 sm:h-5"
                      >
                        <g clipPath="url(#clip0_238_769)">
                          <path
                            d="M22.8146 13.6597L20.8929 6.82374C20.3297 4.82107 19.1056 3.06202 17.4152 1.82621C15.7247 0.59039 13.665 -0.0512763 11.5634 0.00320383C9.46186 0.0576839 7.43899 0.805184 5.81639 2.12689C4.19379 3.44859 3.06457 5.26864 2.60824 7.29774L1.1205 13.9127C0.956164 14.6437 0.959964 15.4018 1.13162 16.1311C1.30327 16.8603 1.63839 17.5422 2.11224 18.1263C2.58609 18.7104 3.18656 19.1818 3.86933 19.5057C4.55211 19.8296 5.29974 19.9978 6.05704 19.9977H7.18371C7.41584 21.128 8.03603 22.1442 8.9392 22.8741C9.84238 23.604 10.973 24.0028 12.1395 24.0028C13.3059 24.0028 14.4366 23.604 15.3397 22.8741C16.2429 22.1442 16.8631 21.128 17.0952 19.9977H17.9428C18.7223 19.9978 19.4914 19.8196 20.1898 19.4772C20.8882 19.1347 21.4971 18.6372 21.9689 18.0236C22.4407 17.41 22.7626 16.6968 22.9094 15.9398C23.0563 15.1828 23.0242 14.4024 22.8156 13.6597H22.8146ZM12.1395 21.9977C11.5142 21.9952 10.9049 21.8017 10.3951 21.4436C9.88534 21.0856 9.49985 20.5806 9.29142 19.9977H14.9875C14.7791 20.5806 14.3936 21.0856 13.8838 21.4436C13.374 21.8017 12.7648 21.9952 12.1395 21.9977ZM20.3579 16.8127C20.0761 17.1824 19.711 17.482 19.2915 17.6877C18.8721 17.8934 18.4099 17.9996 17.9417 17.9977H6.05704C5.60271 17.9977 5.1542 17.8967 4.74461 17.7023C4.33502 17.5079 3.97482 17.2251 3.69057 16.8746C3.40633 16.5242 3.20531 16.1151 3.10236 15.6776C2.9994 15.2401 2.99713 14.7852 3.09572 14.3467L4.58245 7.73074C4.94083 6.13694 5.82776 4.70734 7.10225 3.66919C8.37674 2.63103 9.96563 2.04391 11.6164 2.00115C13.2671 1.95839 14.8849 2.46245 16.2126 3.43321C17.5403 4.40396 18.5017 5.78568 18.944 7.35874L20.8656 14.1947C20.9926 14.6401 21.0128 15.1086 20.9247 15.5631C20.8366 16.0175 20.6425 16.4454 20.3579 16.8127Z"
                            fill="#2B2B2B"
                          />
                        </g>
                        <defs>
                          <clipPath id="clip0_238_769">
                            <rect width="24" height="24" fill="white" />
                          </clipPath>
                        </defs>
                      </svg>