<svg xmlns="http://www.w3.org/2000/svg" width="13" height="12" viewBox="0 0 13 12" fill="none">
  <g clip-path="url(#clip0_238_900)">
    <path d="M12.6427 0.146759C12.5489 0.0530239 12.4218 0.000366211 12.2892 0.000366211C12.1566 0.000366211 12.0295 0.0530239 11.9357 0.146759L6.7892 5.29326L1.6427 0.146759C1.54894 0.0530239 1.42178 0.000366211 1.2892 0.000366211C1.15662 0.000366211 1.02946 0.0530239 0.9357 0.146759C0.841964 0.240523 0.789307 0.367677 0.789307 0.500259C0.789307 0.632842 0.841964 0.759996 0.9357 0.853759L6.0822 6.00026L0.9357 11.1468C0.841964 11.2405 0.789307 11.3677 0.789307 11.5003C0.789307 11.6328 0.841964 11.76 0.9357 11.8538C1.02946 11.9475 1.15662 12.0002 1.2892 12.0002C1.42178 12.0002 1.54894 11.9475 1.6427 11.8538L6.7892 6.70726L11.9357 11.8538C12.0295 11.9475 12.1566 12.0002 12.2892 12.0002C12.4218 12.0002 12.5489 11.9475 12.6427 11.8538C12.7364 11.76 12.7891 11.6328 12.7891 11.5003C12.7891 11.3677 12.7364 11.2405 12.6427 11.1468L7.4962 6.00026L12.6427 0.853759C12.7364 0.759996 12.7891 0.632842 12.7891 0.500259C12.7891 0.367677 12.7364 0.240523 12.6427 0.146759Z" fill="#E1251B"/>
  </g>
  <defs>
    <clipPath id="clip0_238_900">
      <rect width="12" height="12" fill="white" transform="translate(0.789062)"/>
    </clipPath>
  </defs>
</svg>