 <svg
                          xmlns="http://www.w3.org/2000/svg"
                          width="13"
                          height="12"
                          viewBox="0 0 13 12"
                          fill="none"
                        >
                          <g clip-path="url(#clip0_238_890)">
                            <path
                              d="M11.9337 2.14352L5.02484 8.88222C4.97839 8.92771 4.92319 8.96381 4.8624 8.98843C4.80162 9.01306 4.73644 9.02574 4.67062 9.02574C4.6048 9.02574 4.53963 9.01306 4.47884 8.98843C4.41805 8.96381 4.36285 8.92771 4.3164 8.88222L1.64463 6.27364C1.59818 6.22816 1.54298 6.19206 1.48219 6.16743C1.42141 6.14281 1.35623 6.13013 1.29041 6.13013C1.22459 6.13013 1.15942 6.14281 1.09863 6.16743C1.03785 6.19206 0.982645 6.22816 0.936194 6.27364C0.88956 6.31895 0.852557 6.3728 0.827308 6.43209C0.80206 6.49139 0.789062 6.55496 0.789062 6.61916C0.789062 6.68337 0.80206 6.74694 0.827308 6.80623C0.852557 6.86553 0.88956 6.91937 0.936194 6.96468L3.60896 9.57131C3.89091 9.84582 4.273 10 4.67137 10C5.06974 10 5.45183 9.84582 5.73378 9.57131L12.6422 2.83407C12.6887 2.78877 12.7257 2.73495 12.7509 2.6757C12.7761 2.61645 12.7891 2.55294 12.7891 2.48879C12.7891 2.42465 12.7761 2.36113 12.7509 2.30188C12.7257 2.24263 12.6887 2.18882 12.6422 2.14352C12.5957 2.09803 12.5405 2.06193 12.4797 2.03731C12.419 2.01268 12.3538 2 12.288 2C12.2221 2 12.157 2.01268 12.0962 2.03731C12.0354 2.06193 11.9802 2.09803 11.9337 2.14352Z"
                              fill="#14A311"
                            />
                          </g>
                          <defs>
                            <clipPath id="clip0_238_890">
                              <rect
                                width="12"
                                height="12"
                                fill="white"
                                transform="translate(0.789062)"
                              />
                            </clipPath>
                          </defs>
                        </svg>