<svg
                    xmlns="http://www.w3.org/2000/svg"
                    width="16"
                    height="16"
                    viewBox="0 0 16 16"
                    fill="none"
                  >
                    <g clip-path="url(#clip0_238_910)">
                      <path
                        d="M12.6665 15.9999H11.3332C11.1564 15.9999 10.9868 15.9297 10.8618 15.8047C10.7367 15.6797 10.6665 15.5101 10.6665 15.3333C10.6665 15.1565 10.7367 14.9869 10.8618 14.8619C10.9868 14.7369 11.1564 14.6666 11.3332 14.6666H12.6665C13.1969 14.6666 13.7056 14.4559 14.0807 14.0808C14.4558 13.7058 14.6665 13.1971 14.6665 12.6666V11.3333C14.6665 11.1565 14.7367 10.9869 14.8618 10.8619C14.9868 10.7369 15.1564 10.6666 15.3332 10.6666C15.51 10.6666 15.6795 10.7369 15.8046 10.8619C15.9296 10.9869 15.9998 11.1565 15.9998 11.3333V12.6666C15.9988 13.5504 15.6472 14.3976 15.0223 15.0225C14.3975 15.6474 13.5502 15.9989 12.6665 15.9999Z"
                        fill="#A5E049"
                      />
                      <path
                        d="M0.666667 5.33333C0.489856 5.33333 0.320286 5.2631 0.195262 5.13807C0.0702379 5.01305 0 4.84348 0 4.66667V3.33333C0.00105857 2.4496 0.352588 1.60237 0.97748 0.97748C1.60237 0.352588 2.4496 0.00105857 3.33333 0L4.66667 0C4.84348 0 5.01305 0.0702379 5.13807 0.195262C5.2631 0.320286 5.33333 0.489856 5.33333 0.666667C5.33333 0.843478 5.2631 1.01305 5.13807 1.13807C5.01305 1.2631 4.84348 1.33333 4.66667 1.33333H3.33333C2.8029 1.33333 2.29419 1.54405 1.91912 1.91912C1.54405 2.29419 1.33333 2.8029 1.33333 3.33333V4.66667C1.33333 4.84348 1.2631 5.01305 1.13807 5.13807C1.01305 5.2631 0.843478 5.33333 0.666667 5.33333Z"
                        fill="#A5E049"
                      />
                      <path
                        d="M4.66667 15.9999H3.33333C2.4496 15.9989 1.60237 15.6474 0.97748 15.0225C0.352588 14.3976 0.00105857 13.5504 0 12.6666L0 11.3333C0 11.1565 0.0702379 10.9869 0.195262 10.8619C0.320286 10.7369 0.489856 10.6666 0.666667 10.6666C0.843478 10.6666 1.01305 10.7369 1.13807 10.8619C1.2631 10.9869 1.33333 11.1565 1.33333 11.3333V12.6666C1.33333 13.1971 1.54405 13.7058 1.91912 14.0808C2.29419 14.4559 2.8029 14.6666 3.33333 14.6666H4.66667C4.84348 14.6666 5.01305 14.7369 5.13807 14.8619C5.2631 14.9869 5.33333 15.1565 5.33333 15.3333C5.33333 15.5101 5.2631 15.6797 5.13807 15.8047C5.01305 15.9297 4.84348 15.9999 4.66667 15.9999Z"
                        fill="#A5E049"
                      />
                      <path
                        d="M15.3332 5.33333C15.1564 5.33333 14.9868 5.2631 14.8618 5.13807C14.7367 5.01305 14.6665 4.84348 14.6665 4.66667V3.33333C14.6665 2.8029 14.4558 2.29419 14.0807 1.91912C13.7056 1.54405 13.1969 1.33333 12.6665 1.33333H11.3332C11.1564 1.33333 10.9868 1.2631 10.8618 1.13807C10.7367 1.01305 10.6665 0.843478 10.6665 0.666667C10.6665 0.489856 10.7367 0.320286 10.8618 0.195262C10.9868 0.0702379 11.1564 0 11.3332 0L12.6665 0C13.5502 0.00105857 14.3975 0.352588 15.0223 0.97748C15.6472 1.60237 15.9988 2.4496 15.9998 3.33333V4.66667C15.9998 4.84348 15.9296 5.01305 15.8046 5.13807C15.6795 5.2631 15.51 5.33333 15.3332 5.33333Z"
                        fill="#A5E049"
                      />
                    </g>
                    <defs>
                      <clipPath id="clip0_238_910">
                        <rect width="16" height="16" fill="white" />
                      </clipPath>
                    </defs>
                  </svg>