<svg width="12" height="12" viewBox="0 0 12 12" fill="none" xmlns="http://www.w3.org/2000/svg">
<g clipPath="url(#clip0_238_588)">
<path d="M6 0C4.81331 0 3.65328 0.351894 2.66658 1.01118C1.67989 1.67047 0.910851 2.60754 0.456726 3.7039C0.00259972 4.80026 -0.11622 6.00666 0.115291 7.17054C0.346802 8.33443 0.918247 9.40353 1.75736 10.2426C2.59648 11.0818 3.66558 11.6532 4.82946 11.8847C5.99335 12.1162 7.19975 11.9974 8.2961 11.5433C9.39246 11.0892 10.3295 10.3201 10.9888 9.33342C11.6481 8.34673 12 7.18669 12 6C11.9983 4.40923 11.3656 2.88411 10.2407 1.75926C9.1159 0.634414 7.59077 0.00172054 6 0V0ZM6 11C5.0111 11 4.0444 10.7068 3.22215 10.1573C2.39991 9.60794 1.75904 8.82705 1.38061 7.91342C1.00217 6.99979 0.90315 5.99445 1.09608 5.02455C1.289 4.05464 1.76521 3.16373 2.46447 2.46447C3.16373 1.7652 4.05465 1.289 5.02455 1.09607C5.99446 0.903148 6.99979 1.00216 7.91342 1.3806C8.82705 1.75904 9.60794 2.3999 10.1574 3.22215C10.7068 4.04439 11 5.01109 11 6C10.9985 7.32564 10.4713 8.59656 9.53393 9.53393C8.59656 10.4713 7.32564 10.9985 6 11Z" fill="#14A311"/>
<path d="M6.35856 2.53134C6.07022 2.4788 5.77386 2.49028 5.49046 2.56496C5.20705 2.63963 4.94351 2.77569 4.71851 2.96349C4.4935 3.15129 4.31252 3.38625 4.18837 3.65174C4.06421 3.91722 3.99993 4.20675 4.00006 4.49984C4.00006 4.63244 4.05274 4.75962 4.14651 4.85339C4.24028 4.94716 4.36745 4.99984 4.50006 4.99984C4.63267 4.99984 4.75984 4.94716 4.85361 4.85339C4.94738 4.75962 5.00006 4.63244 5.00006 4.49984C4.99993 4.35272 5.03227 4.2074 5.09476 4.07422C5.15724 3.94103 5.24835 3.82328 5.36157 3.72935C5.47479 3.63542 5.60734 3.56763 5.74977 3.53081C5.8922 3.49399 6.041 3.48905 6.18556 3.51634C6.38308 3.55468 6.56468 3.65103 6.70718 3.79308C6.84968 3.93513 6.9466 4.11644 6.98556 4.31384C7.0249 4.52104 6.99774 4.73537 6.90793 4.9262C6.81813 5.11703 6.67029 5.27459 6.48556 5.37634C6.17964 5.55357 5.92685 5.80959 5.75352 6.11774C5.58019 6.42588 5.49266 6.77487 5.50006 7.12834V7.49984C5.50006 7.63244 5.55274 7.75962 5.6465 7.85339C5.74027 7.94716 5.86745 7.99984 6.00006 7.99984C6.13267 7.99984 6.25984 7.94716 6.35361 7.85339C6.44738 7.75962 6.50006 7.63244 6.50006 7.49984V7.12834C6.49378 6.95434 6.53346 6.78177 6.61509 6.62798C6.69672 6.4742 6.81743 6.34464 6.96506 6.25234C7.32731 6.05337 7.61903 5.74706 7.8001 5.37554C7.98116 5.00401 8.04268 4.58552 7.97619 4.1776C7.90971 3.76968 7.71848 3.39238 7.4288 3.09758C7.13913 2.80279 6.76524 2.60497 6.35856 2.53134Z" fill="#14A311"/>
<path d="M6.50007 8.99984C6.50007 8.7237 6.27621 8.49984 6.00006 8.49984C5.72392 8.49984 5.50006 8.7237 5.50006 8.99984C5.50006 9.27599 5.72392 9.49985 6.00006 9.49985C6.27621 9.49985 6.50007 9.27599 6.50007 8.99984Z" fill="#14A311"/>
</g>
<defs>
<clipPath id="clip0_238_588">
<rect width="12" height="12" fill="white"/>
</clipPath>
</defs>
</svg>
