<svg width="337" height="59" viewBox="0 0 337 59" fill="none" xmlns="http://www.w3.org/2000/svg">
<path d="M10.88 6.08C8.96 6.08 7.5 6.4 6.5 7.04C5.54 7.64 4.84 8.48 4.4 9.56C4 10.64 3.66 11.92 3.38 13.4C2.94 13.4 2.44 13.36 1.88 13.28C1.32 13.2 0.86 13.06 0.5 12.86C0.82 11.18 1.06 9.5 1.22 7.82C1.38 6.14 1.46 4.62 1.46 3.26C2.58 3.3 3.94 3.34 5.54 3.38C7.18 3.42 8.94 3.44 10.82 3.44C12.74 3.44 14.72 3.44 16.76 3.44C18.8 3.44 20.78 3.44 22.7 3.44C24.66 3.44 26.46 3.42 28.1 3.38C29.74 3.34 31.1 3.3 32.18 3.26C32.14 4.7 32.14 6.18 32.18 7.7C32.26 9.22 32.38 10.94 32.54 12.86C32.14 13.06 31.68 13.22 31.16 13.34C30.68 13.42 30.14 13.44 29.54 13.4C29.5 11.04 28.94 9.24 27.86 8C26.82 6.72 25.12 6.08 22.76 6.08H10.88ZM13.94 5.06H19.58V36.38C19.58 37.7 19.7 38.74 19.94 39.5C20.18 40.22 20.64 40.74 21.32 41.06C22 41.34 22.98 41.52 24.26 41.6C24.38 41.92 24.46 42.3 24.5 42.74C24.54 43.14 24.56 43.62 24.56 44.18C23.28 44.1 21.96 44.04 20.6 44C19.28 44 17.98 44 16.7 44C15.86 44 14.96 44 14 44C13.08 44.04 12.18 44.06 11.3 44.06C10.42 44.1 9.6 44.14 8.84 44.18C8.84 43.62 8.86 43.14 8.9 42.74C8.94 42.3 9.02 41.92 9.14 41.6C10.42 41.52 11.4 41.34 12.08 41.06C12.8 40.74 13.28 40.22 13.52 39.5C13.8 38.74 13.94 37.7 13.94 36.38V5.06ZM43.7553 35.18C43.7553 36.9 43.9353 38.22 44.2953 39.14C44.6553 40.02 45.2353 40.64 46.0353 41C46.8353 41.32 47.8553 41.52 49.0953 41.6C49.2153 41.92 49.2953 42.3 49.3353 42.74C49.3753 43.14 49.3953 43.62 49.3953 44.18C48.7953 44.14 48.0753 44.1 47.2353 44.06C46.4353 44.06 45.5753 44.04 44.6553 44C43.7353 44 42.7953 44 41.8353 44C40.4353 44 38.9553 44 37.3953 44C35.8753 44.04 34.7153 44.1 33.9153 44.18C33.9153 43.62 33.9353 43.14 33.9753 42.74C34.0153 42.3 34.0953 41.92 34.2153 41.6C35.2953 41.52 36.1353 41.34 36.7353 41.06C37.3353 40.74 37.7553 40.22 37.9953 39.5C38.2353 38.74 38.3553 37.7 38.3553 36.38V30.38H43.7553V35.18ZM43.7553 26.42V31.16H38.3553V24.5L43.7553 18.62C43.7553 19.98 43.6353 21.22 43.3953 22.34C43.1553 23.42 42.9353 24.5 42.7353 25.58L43.7553 26.42ZM42.4353 25.94C42.8753 24.82 43.2153 23.9 43.4553 23.18C43.6953 22.46 43.9553 21.86 44.2353 21.38C45.1153 19.98 46.1553 18.82 47.3553 17.9C48.5553 16.98 49.9353 16.52 51.4953 16.52C53.0153 16.52 54.3953 17 55.6353 17.96C55.5553 18.6 55.4753 19.34 55.3953 20.18C55.3153 21.02 55.2553 21.86 55.2153 22.7C55.2153 23.54 55.2153 24.32 55.2153 25.04C54.8553 25.16 54.3553 25.28 53.7153 25.4C53.1153 25.52 52.4753 25.58 51.7953 25.58C51.7153 23.66 51.3953 22.4 50.8353 21.8C50.3153 21.2 49.6553 20.9 48.8553 20.9C48.1753 20.9 47.4353 21.3 46.6353 22.1C45.8353 22.86 45.1553 23.88 44.5953 25.16C44.0353 26.44 43.7553 27.86 43.7553 29.42L42.4353 25.94ZM38.3553 31.16V24.5C38.3553 23.54 38.2553 22.76 38.0553 22.16C37.8553 21.56 37.4353 21.1 36.7953 20.78C36.1553 20.46 35.1753 20.28 33.8553 20.24C33.8553 19.8 33.8953 19.4 33.9753 19.04C34.0553 18.68 34.1953 18.34 34.3953 18.02C35.6353 17.94 37.0553 17.7 38.6553 17.3C40.2553 16.9 41.5153 16.46 42.4353 15.98C42.7953 16.1 43.0953 16.36 43.3353 16.76C43.6153 17.12 43.7553 17.74 43.7553 18.62L38.3553 31.16ZM77.412 44.54C76.972 44.34 76.612 43.98 76.332 43.46C76.092 42.94 75.972 42.12 75.972 41C75.972 40.64 75.992 40.22 76.032 39.74C76.072 39.22 76.152 38.76 76.272 38.36H76.392C76.272 39 75.992 39.7 75.552 40.46C75.152 41.18 74.612 41.82 73.932 42.38C73.252 42.98 72.392 43.48 71.352 43.88C70.312 44.24 69.052 44.42 67.572 44.42C65.052 44.42 63.132 43.86 61.812 42.74C60.492 41.58 59.832 40.02 59.832 38.06C59.832 36.5 60.192 35.18 60.912 34.1C61.672 32.98 62.632 32.06 63.792 31.34C64.992 30.58 66.272 29.98 67.632 29.54C69.032 29.1 70.392 28.76 71.712 28.52C73.032 28.28 74.192 28.08 75.192 27.92C75.192 26.28 75.152 25 75.072 24.08C75.032 23.16 74.912 22.44 74.712 21.92C74.552 21.36 74.292 20.88 73.932 20.48C73.452 19.88 72.892 19.44 72.252 19.16C71.652 18.84 70.972 18.68 70.212 18.68C68.892 18.68 67.852 19.1 67.092 19.94C66.332 20.74 65.792 21.68 65.472 22.76C65.152 23.84 64.972 24.8 64.932 25.64C64.492 25.64 63.932 25.62 63.252 25.58C62.612 25.5 62.132 25.38 61.812 25.22C61.892 24.22 61.912 23.1 61.872 21.86C61.832 20.62 61.712 19.56 61.512 18.68C63.152 17.84 64.872 17.18 66.672 16.7C68.512 16.22 70.192 15.98 71.712 15.98C73.192 15.98 74.452 16.2 75.492 16.64C76.572 17.04 77.432 17.58 78.072 18.26C79.112 19.26 79.792 20.58 80.112 22.22C80.432 23.82 80.592 25.96 80.592 28.64V35.24C80.592 36.36 80.672 37.26 80.832 37.94C81.032 38.58 81.392 39.06 81.912 39.38C82.432 39.66 83.232 39.84 84.312 39.92C84.312 40.32 84.292 40.78 84.252 41.3C84.212 41.78 84.112 42.24 83.952 42.68C82.952 42.72 81.832 42.92 80.592 43.28C79.392 43.6 78.332 44.02 77.412 44.54ZM69.252 41.12C70.132 41.12 71.032 40.84 71.952 40.28C72.872 39.68 73.632 38.76 74.232 37.52C74.872 36.28 75.192 34.66 75.192 32.66V30.38C74.192 30.5 73.132 30.68 72.012 30.92C70.892 31.12 69.852 31.44 68.892 31.88C67.932 32.32 67.152 32.94 66.552 33.74C65.952 34.5 65.652 35.54 65.652 36.86C65.652 38.34 66.012 39.42 66.732 40.1C67.452 40.78 68.292 41.12 69.252 41.12ZM104.055 15.98C105.215 15.98 106.215 16.08 107.055 16.28C107.935 16.48 108.875 16.74 109.875 17.06V21.68C109.075 20.84 108.195 20.14 107.235 19.58C106.315 19.02 105.155 18.74 103.755 18.74C102.915 18.74 101.995 18.92 100.995 19.28C100.035 19.6 99.0948 20.18 98.1748 21.02C97.2548 21.86 96.4948 23.04 95.8948 24.56C95.3348 26.08 95.0548 28.04 95.0548 30.44C95.0548 33 95.4348 35.04 96.1948 36.56C96.9548 38.04 97.8548 39.12 98.8948 39.8C99.9348 40.44 100.895 40.76 101.775 40.76C102.975 40.76 104.115 40.4 105.195 39.68C106.315 38.92 107.235 37.7 107.955 36.02C108.675 34.34 109.035 32.1 109.035 29.3L110.775 35.66C110.255 36.94 109.795 37.92 109.395 38.6C109.035 39.28 108.755 39.78 108.555 40.1C108.195 40.7 107.615 41.34 106.815 42.02C106.055 42.7 105.115 43.3 103.995 43.82C102.915 44.3 101.695 44.54 100.335 44.54C98.0148 44.54 96.0148 44.08 94.3348 43.16C92.6548 42.2 91.3548 40.74 90.4348 38.78C89.5548 36.82 89.1148 34.3 89.1148 31.22C89.1148 28.42 89.7348 25.88 90.9748 23.6C92.2148 21.28 93.9548 19.44 96.1948 18.08C98.4348 16.68 101.055 15.98 104.055 15.98ZM114.435 35.84C114.435 36.76 114.515 37.54 114.675 38.18C114.835 38.78 115.175 39.22 115.695 39.5C116.255 39.78 117.075 39.92 118.155 39.92C118.155 40.32 118.135 40.78 118.095 41.3C118.055 41.78 117.955 42.24 117.795 42.68C116.795 42.72 115.635 42.92 114.315 43.28C112.995 43.6 111.875 44.02 110.955 44.54C110.555 44.34 110.195 44.06 109.875 43.7C109.595 43.3 109.455 42.42 109.455 41.06C109.455 40.26 109.515 39.56 109.635 38.96C109.795 38.32 110.015 37.28 110.295 35.84H114.435ZM114.435 9.5V36.38H109.035V9.5H114.435ZM113.115 0.98C113.475 1.1 113.775 1.34 114.015 1.7C114.295 2.06 114.435 2.62 114.435 3.38V11.72H109.035V9.5C109.035 8.54 108.935 7.76 108.735 7.16C108.575 6.52 108.175 6.04 107.535 5.72C106.895 5.4 105.895 5.24 104.535 5.24C104.535 4.8 104.575 4.4 104.655 4.04C104.735 3.68 104.875 3.34 105.075 3.02C105.675 3.02 106.515 2.92 107.595 2.72C108.675 2.52 109.735 2.26 110.775 1.94C111.855 1.62 112.635 1.3 113.115 0.98ZM135.702 44.54C132.862 44.54 130.502 43.9 128.622 42.62C126.742 41.34 125.322 39.62 124.362 37.46C123.442 35.26 122.982 32.86 122.982 30.26C122.982 27.7 123.482 25.34 124.482 23.18C125.482 21.02 126.902 19.28 128.742 17.96C130.622 16.64 132.842 15.98 135.402 15.98C138.002 15.98 140.082 16.54 141.642 17.66C143.242 18.78 144.422 20.28 145.182 22.16C145.982 24.04 146.462 26.12 146.622 28.4C146.462 29.2 146.162 29.88 145.722 30.44C145.042 30.44 144.022 30.44 142.662 30.44C141.302 30.44 139.762 30.46 138.042 30.5C136.322 30.5 134.562 30.54 132.762 30.62C130.962 30.66 129.262 30.72 127.662 30.8V27.74H140.382C140.382 25.1 139.902 22.96 138.942 21.32C137.982 19.68 136.622 18.86 134.862 18.86C133.902 18.86 132.962 19.16 132.042 19.76C131.122 20.32 130.362 21.34 129.762 22.82C129.162 24.26 128.862 26.32 128.862 29C128.862 30.96 129.102 32.88 129.582 34.76C130.102 36.6 130.982 38.14 132.222 39.38C133.502 40.58 135.302 41.18 137.622 41.18C138.942 41.18 140.242 40.88 141.522 40.28C142.802 39.68 143.942 38.82 144.942 37.7C145.262 37.86 145.562 38.14 145.842 38.54C146.162 38.9 146.342 39.24 146.382 39.56C145.022 41.36 143.442 42.64 141.642 43.4C139.882 44.16 137.902 44.54 135.702 44.54ZM161.06 35.18C161.06 36.9 161.24 38.22 161.6 39.14C161.96 40.02 162.54 40.64 163.34 41C164.14 41.32 165.16 41.52 166.4 41.6C166.52 41.92 166.6 42.3 166.64 42.74C166.68 43.14 166.7 43.62 166.7 44.18C166.1 44.14 165.38 44.1 164.54 44.06C163.74 44.06 162.88 44.04 161.96 44C161.04 44 160.1 44 159.14 44C157.74 44 156.26 44 154.7 44C153.18 44.04 152.02 44.1 151.22 44.18C151.22 43.62 151.24 43.14 151.28 42.74C151.32 42.3 151.4 41.92 151.52 41.6C152.6 41.52 153.44 41.34 154.04 41.06C154.64 40.74 155.06 40.22 155.3 39.5C155.54 38.74 155.66 37.7 155.66 36.38V30.38H161.06V35.18ZM161.06 26.42V31.16H155.66V24.5L161.06 18.62C161.06 19.98 160.94 21.22 160.7 22.34C160.46 23.42 160.24 24.5 160.04 25.58L161.06 26.42ZM159.74 25.94C160.18 24.82 160.52 23.9 160.76 23.18C161 22.46 161.26 21.86 161.54 21.38C162.42 19.98 163.46 18.82 164.66 17.9C165.86 16.98 167.24 16.52 168.8 16.52C170.32 16.52 171.7 17 172.94 17.96C172.86 18.6 172.78 19.34 172.7 20.18C172.62 21.02 172.56 21.86 172.52 22.7C172.52 23.54 172.52 24.32 172.52 25.04C172.16 25.16 171.66 25.28 171.02 25.4C170.42 25.52 169.78 25.58 169.1 25.58C169.02 23.66 168.7 22.4 168.14 21.8C167.62 21.2 166.96 20.9 166.16 20.9C165.48 20.9 164.74 21.3 163.94 22.1C163.14 22.86 162.46 23.88 161.9 25.16C161.34 26.44 161.06 27.86 161.06 29.42L159.74 25.94ZM155.66 31.16V24.5C155.66 23.54 155.56 22.76 155.36 22.16C155.16 21.56 154.74 21.1 154.1 20.78C153.46 20.46 152.48 20.28 151.16 20.24C151.16 19.8 151.2 19.4 151.28 19.04C151.36 18.68 151.5 18.34 151.7 18.02C152.94 17.94 154.36 17.7 155.96 17.3C157.56 16.9 158.82 16.46 159.74 15.98C160.1 16.1 160.4 16.36 160.64 16.76C160.92 17.12 161.06 17.74 161.06 18.62L155.66 31.16ZM196.877 26.12C197.917 23.56 198.157 21.82 197.597 20.9C197.077 19.94 195.937 19.3 194.177 18.98C194.017 18.54 193.897 18.12 193.817 17.72C193.777 17.28 193.757 16.84 193.757 16.4C194.677 16.44 195.617 16.48 196.577 16.52C197.537 16.52 198.577 16.52 199.697 16.52C200.817 16.52 201.877 16.52 202.877 16.52C203.877 16.48 204.817 16.44 205.697 16.4C205.697 16.8 205.677 17.22 205.637 17.66C205.637 18.1 205.537 18.54 205.337 18.98C204.617 19.14 203.997 19.42 203.477 19.82C202.997 20.22 202.537 20.84 202.097 21.68C201.657 22.52 201.117 23.7 200.477 25.22L191.657 46.22C190.537 48.94 189.517 51.14 188.597 52.82C187.717 54.5 186.877 55.78 186.077 56.66C185.317 57.54 184.537 58.14 183.737 58.46C182.977 58.78 182.137 58.94 181.217 58.94C180.017 58.94 179.057 58.78 178.337 58.46C177.657 58.14 177.117 57.84 176.717 57.56C176.557 56.96 176.497 56.2 176.537 55.28C176.577 54.4 176.657 53.7 176.777 53.18C177.457 53.3 178.117 53.38 178.757 53.42C179.397 53.5 180.017 53.54 180.617 53.54C181.777 53.54 182.877 53.26 183.917 52.7C184.997 52.14 185.917 51.24 186.677 50C187.237 49.16 188.077 47.5 189.197 45.02C190.317 42.58 191.497 39.76 192.737 36.56L196.877 26.12ZM189.857 45.26C188.897 43.14 187.877 40.92 186.797 38.6C185.757 36.24 184.757 33.98 183.797 31.82C182.837 29.66 181.997 27.84 181.277 26.36C180.357 24.36 179.577 22.86 178.937 21.86C178.337 20.86 177.757 20.16 177.197 19.76C176.677 19.36 176.077 19.1 175.397 18.98C175.277 18.62 175.177 18.22 175.097 17.78C175.057 17.34 175.037 16.88 175.037 16.4C176.197 16.44 177.357 16.48 178.517 16.52C179.677 16.52 180.777 16.52 181.817 16.52C182.857 16.52 184.137 16.52 185.657 16.52C187.177 16.48 188.557 16.44 189.797 16.4C189.797 16.92 189.757 17.4 189.677 17.84C189.637 18.24 189.537 18.62 189.377 18.98C187.217 19.34 185.977 19.98 185.657 20.9C185.337 21.78 185.717 23.34 186.797 25.58C187.357 26.74 187.997 28.14 188.717 29.78C189.437 31.38 190.137 33 190.817 34.64C191.497 36.24 192.077 37.66 192.557 38.9L189.857 45.26ZM236.053 41.3C238.293 41.3 240.053 41.06 241.333 40.58C242.613 40.1 243.633 39.3 244.393 38.18C245.193 37.06 245.913 35.58 246.553 33.74C247.153 33.9 247.653 34.1 248.053 34.34C248.453 34.54 248.833 34.82 249.193 35.18C248.753 36.54 248.373 38.02 248.053 39.62C247.773 41.22 247.533 42.72 247.333 44.12C246.573 44.08 245.553 44.06 244.273 44.06C243.033 44.06 241.653 44.04 240.133 44C238.653 44 237.173 44 235.693 44C234.573 44 233.273 44 231.793 44C230.353 44 228.873 44 227.353 44C225.873 44.04 224.493 44.06 223.213 44.06C221.933 44.1 220.913 44.14 220.153 44.18C220.153 43.62 220.173 43.14 220.213 42.74C220.253 42.3 220.333 41.92 220.453 41.6C221.533 41.52 222.373 41.32 222.973 41C223.573 40.68 223.993 40.12 224.233 39.32C224.513 38.48 224.653 37.28 224.653 35.72V11.06C224.653 9.7 224.533 8.66 224.293 7.94C224.053 7.22 223.633 6.7 223.033 6.38C222.433 6.06 221.593 5.88 220.513 5.84C220.393 5.52 220.313 5.14 220.273 4.7C220.233 4.22 220.213 3.74 220.213 3.26C221.013 3.3 221.853 3.34 222.733 3.38C223.653 3.38 224.533 3.4 225.373 3.44C226.213 3.44 226.913 3.44 227.473 3.44C228.353 3.44 229.193 3.44 229.993 3.44C230.793 3.4 231.573 3.38 232.333 3.38C233.133 3.34 233.933 3.3 234.733 3.26C234.733 3.78 234.713 4.26 234.673 4.7C234.633 5.14 234.553 5.52 234.433 5.84C233.393 5.88 232.553 6.06 231.913 6.38C231.313 6.7 230.893 7.24 230.653 8C230.413 8.76 230.293 9.84 230.293 11.24V35.72C230.293 37.2 230.433 38.34 230.713 39.14C230.993 39.94 231.513 40.5 232.273 40.82C233.073 41.14 234.213 41.3 235.693 41.3H236.053ZM270.947 44.54C270.507 44.34 270.147 43.98 269.867 43.46C269.627 42.94 269.507 42.12 269.507 41C269.507 40.64 269.527 40.22 269.567 39.74C269.607 39.22 269.687 38.76 269.807 38.36H269.927C269.807 39 269.527 39.7 269.087 40.46C268.687 41.18 268.147 41.82 267.467 42.38C266.787 42.98 265.927 43.48 264.887 43.88C263.847 44.24 262.587 44.42 261.107 44.42C258.587 44.42 256.667 43.86 255.347 42.74C254.027 41.58 253.367 40.02 253.367 38.06C253.367 36.5 253.727 35.18 254.447 34.1C255.207 32.98 256.167 32.06 257.327 31.34C258.527 30.58 259.807 29.98 261.167 29.54C262.567 29.1 263.927 28.76 265.247 28.52C266.567 28.28 267.727 28.08 268.727 27.92C268.727 26.28 268.687 25 268.607 24.08C268.567 23.16 268.447 22.44 268.247 21.92C268.087 21.36 267.827 20.88 267.467 20.48C266.987 19.88 266.427 19.44 265.787 19.16C265.187 18.84 264.507 18.68 263.747 18.68C262.427 18.68 261.387 19.1 260.627 19.94C259.867 20.74 259.327 21.68 259.007 22.76C258.687 23.84 258.507 24.8 258.467 25.64C258.027 25.64 257.467 25.62 256.787 25.58C256.147 25.5 255.667 25.38 255.347 25.22C255.427 24.22 255.447 23.1 255.407 21.86C255.367 20.62 255.247 19.56 255.047 18.68C256.687 17.84 258.407 17.18 260.207 16.7C262.047 16.22 263.727 15.98 265.247 15.98C266.727 15.98 267.987 16.2 269.027 16.64C270.107 17.04 270.967 17.58 271.607 18.26C272.647 19.26 273.327 20.58 273.647 22.22C273.967 23.82 274.127 25.96 274.127 28.64V35.24C274.127 36.36 274.207 37.26 274.367 37.94C274.567 38.58 274.927 39.06 275.447 39.38C275.967 39.66 276.767 39.84 277.847 39.92C277.847 40.32 277.827 40.78 277.787 41.3C277.747 41.78 277.647 42.24 277.487 42.68C276.487 42.72 275.367 42.92 274.127 43.28C272.927 43.6 271.867 44.02 270.947 44.54ZM262.787 41.12C263.667 41.12 264.567 40.84 265.487 40.28C266.407 39.68 267.167 38.76 267.767 37.52C268.407 36.28 268.727 34.66 268.727 32.66V30.38C267.727 30.5 266.667 30.68 265.547 30.92C264.427 31.12 263.387 31.44 262.427 31.88C261.467 32.32 260.687 32.94 260.087 33.74C259.487 34.5 259.187 35.54 259.187 36.86C259.187 38.34 259.547 39.42 260.267 40.1C260.987 40.78 261.827 41.12 262.787 41.12ZM289.91 38.84C290.71 39.68 291.57 40.38 292.49 40.94C293.45 41.5 294.63 41.78 296.03 41.78C296.87 41.78 297.77 41.62 298.73 41.3C299.73 40.94 300.69 40.34 301.61 39.5C302.53 38.66 303.27 37.48 303.83 35.96C304.43 34.44 304.73 32.48 304.73 30.08C304.73 27.52 304.35 25.5 303.59 24.02C302.83 22.5 301.93 21.42 300.89 20.78C299.85 20.1 298.89 19.76 298.01 19.76C296.85 19.76 295.71 20.14 294.59 20.9C293.47 21.62 292.55 22.82 291.83 24.5C291.11 26.18 290.75 28.42 290.75 31.22V40.76L289.91 38.84ZM295.73 44.54C293.93 44.54 292.29 44.36 290.81 44C289.33 43.64 288.03 43.16 286.91 42.56C285.79 41.92 284.83 41.22 284.03 40.46C284.47 39.9 284.79 39.08 284.99 38C285.23 36.92 285.35 35.2 285.35 32.84V9.5C285.35 8.54 285.25 7.76 285.05 7.16C284.89 6.52 284.49 6.04 283.85 5.72C283.21 5.4 282.21 5.24 280.85 5.24C280.85 4.8 280.89 4.4 280.97 4.04C281.05 3.68 281.19 3.34 281.39 3.02C281.99 3.02 282.83 2.92 283.91 2.72C285.03 2.52 286.11 2.26 287.15 1.94C288.19 1.62 288.95 1.3 289.43 0.98C289.79 1.1 290.09 1.34 290.33 1.7C290.61 2.06 290.75 2.62 290.75 3.38V19.04C290.75 19.76 290.71 20.38 290.63 20.9C290.55 21.38 290.47 21.84 290.39 22.28L290.15 27.62L289.01 24.86C289.53 23.58 289.97 22.6 290.33 21.92C290.73 21.24 291.03 20.74 291.23 20.42C291.59 19.82 292.15 19.18 292.91 18.5C293.71 17.78 294.67 17.18 295.79 16.7C296.91 16.22 298.13 15.98 299.45 15.98C301.81 15.98 303.81 16.46 305.45 17.42C307.13 18.34 308.41 19.78 309.29 21.74C310.21 23.7 310.67 26.22 310.67 29.3C310.67 32.1 310.05 34.66 308.81 36.98C307.57 39.26 305.83 41.1 303.59 42.5C301.35 43.86 298.73 44.54 295.73 44.54ZM334.363 18.08C334.323 19.04 334.283 20.06 334.243 21.14C334.243 22.22 334.323 23.28 334.483 24.32C334.083 24.56 333.623 24.74 333.103 24.86C332.583 24.98 332.043 25.04 331.483 25.04C331.403 23.92 331.063 22.86 330.463 21.86C329.903 20.86 329.143 20.04 328.183 19.4C327.223 18.76 326.083 18.44 324.763 18.44C323.523 18.44 322.523 18.74 321.763 19.34C321.043 19.94 320.683 20.74 320.683 21.74C320.683 22.42 320.823 23.02 321.103 23.54C321.423 24.06 322.083 24.62 323.083 25.22C324.123 25.78 325.703 26.48 327.823 27.32C329.983 28.12 331.683 28.92 332.923 29.72C334.163 30.52 335.043 31.42 335.563 32.42C336.083 33.42 336.343 34.64 336.343 36.08C336.343 37.76 335.863 39.24 334.903 40.52C333.943 41.8 332.623 42.8 330.943 43.52C329.303 44.2 327.443 44.54 325.363 44.54C322.963 44.54 321.043 44.36 319.603 44C318.203 43.6 316.823 43.04 315.463 42.32C315.543 41.68 315.583 40.9 315.583 39.98C315.623 39.06 315.643 38.14 315.643 37.22C315.643 36.3 315.603 35.52 315.523 34.88C315.843 34.64 316.283 34.48 316.843 34.4C317.443 34.28 318.043 34.22 318.643 34.22C318.963 36.74 319.743 38.62 320.982 39.86C322.223 41.1 323.883 41.72 325.963 41.72C327.603 41.72 328.863 41.36 329.743 40.64C330.663 39.92 331.123 39 331.123 37.88C331.123 37.16 330.943 36.54 330.583 36.02C330.263 35.5 329.643 34.98 328.723 34.46C327.803 33.94 326.443 33.32 324.643 32.6C322.483 31.72 320.743 30.9 319.423 30.14C318.143 29.38 317.203 28.48 316.603 27.44C316.043 26.4 315.763 25.08 315.763 23.48C315.763 22.2 316.083 21.1 316.723 20.18C317.363 19.22 318.183 18.44 319.183 17.84C320.223 17.2 321.323 16.74 322.483 16.46C323.643 16.14 324.723 15.98 325.723 15.98C327.523 15.98 329.103 16.16 330.463 16.52C331.823 16.88 333.123 17.4 334.363 18.08Z" fill="white"/>
</svg>
