<svg width="57" height="56" viewBox="0 0 57 56" fill="none" xmlns="http://www.w3.org/2000/svg">
<circle cx="28.7891" cy="28" r="28" fill="url(#paint0_linear_238_795)"/>
<g clip-path="url(#clip0_238_795)">
<path d="M44.6556 27.2495C44.1317 23.2168 42.0919 19.5348 38.9507 16.952C35.8095 14.3692 31.8028 13.0794 27.7448 13.3448C23.6868 13.6102 19.8821 15.4108 17.1041 18.3807C14.326 21.3506 12.7831 25.2669 12.7889 29.3335C12.7812 31.5102 13.2223 33.6651 14.0847 35.6637C14.947 37.6623 16.2121 39.4617 17.8009 40.9495C19.016 42.0745 20.6171 42.6894 22.2729 42.6669H35.2956C37.0449 42.671 38.7255 41.9866 39.9743 40.7615C41.7539 39.0301 43.104 36.9066 43.9168 34.5605C44.7296 32.2144 44.9826 29.7108 44.6556 27.2495ZM38.1103 38.8495C37.3601 39.5887 36.3487 40.0021 35.2956 40.0002H22.2729C21.2986 40.0202 20.3536 39.6667 19.6316 39.0122C18.308 37.7724 17.254 36.273 16.5355 34.6078C15.817 32.9426 15.4494 31.1471 15.4556 29.3335C15.4569 27.4565 15.8539 25.6009 16.6208 23.8877C17.3877 22.1745 18.5072 20.6422 19.9062 19.3909C22.3371 17.1987 25.497 15.99 28.7703 16.0002C29.2933 16.0004 29.8158 16.0298 30.3356 16.0882C32.8364 16.3786 35.2038 17.3716 37.1635 18.9521C39.1232 20.5326 40.5951 22.6359 41.4087 25.0185C42.2223 27.401 42.3442 29.9653 41.7605 32.4143C41.1767 34.8633 39.9111 37.0968 38.1103 38.8562V38.8495ZM23.1983 35.0469C23.4511 35.2944 23.5952 35.6322 23.599 35.9861C23.6027 36.3399 23.4658 36.6807 23.2183 36.9335C22.9707 37.1864 22.6329 37.3305 22.2791 37.3343C21.9252 37.338 21.5844 37.2011 21.3316 36.9535C19.8182 35.4711 18.7805 33.5716 18.3508 31.4972C17.9211 29.4227 18.1188 27.2673 18.9188 25.3057C19.7187 23.3441 21.0847 21.6651 22.8425 20.4827C24.6003 19.3004 26.6704 18.6682 28.7889 18.6669C29.2988 18.6667 29.8081 18.7028 30.3129 18.7749C30.4863 18.7999 30.653 18.8588 30.8036 18.9482C30.9542 19.0377 31.0857 19.1559 31.1906 19.2962C31.2955 19.4365 31.3717 19.5961 31.4148 19.7658C31.458 19.9356 31.4673 20.1122 31.4423 20.2855C31.4193 20.4598 31.3617 20.6278 31.2729 20.7795C31.1841 20.9312 31.0658 21.0637 30.925 21.169C30.7843 21.2744 30.6239 21.3505 30.4533 21.393C30.2827 21.4354 30.1053 21.4433 29.9316 21.4162C28.2629 21.1779 26.5616 21.4727 25.0704 22.2586C23.5792 23.0445 22.3743 24.2814 21.6278 25.7927C20.8812 27.304 20.6311 29.0124 20.9132 30.6743C21.1952 32.3362 21.9949 33.8665 23.1983 35.0469ZM39.3476 27.8095C39.4196 28.3143 39.4557 28.8236 39.4556 29.3335C39.4599 30.7544 39.1778 32.1616 38.6262 33.4711C38.0745 34.7805 37.2647 35.9654 36.2449 36.9549C35.9917 37.2024 35.6506 37.3392 35.2965 37.3352C34.9424 37.3312 34.6045 37.1867 34.3569 36.9335C34.1094 36.6803 33.9726 36.3392 33.9766 35.9851C33.9806 35.631 34.1251 35.2931 34.3783 35.0455C35.2791 34.1674 35.9594 33.0886 36.3636 31.8973C36.7677 30.7059 36.8842 29.4359 36.7036 28.1909C36.653 27.8406 36.7437 27.4846 36.9556 27.2012C37.1675 26.9177 37.4833 26.7301 37.8336 26.6795C38.1838 26.629 38.5399 26.7196 38.8233 26.9315C39.1067 27.1434 39.2943 27.4593 39.3449 27.8095H39.3476ZM31.3569 28.6509C31.5174 29.2279 31.4822 29.8418 31.257 30.3967C31.0317 30.9516 30.629 31.4163 30.1117 31.7182C29.5945 32.0201 28.9918 32.1422 28.3979 32.0654C27.8039 31.9886 27.2521 31.7173 26.8286 31.2938C26.4051 30.8703 26.1338 30.3185 26.057 29.7246C25.9803 29.1306 26.1024 28.528 26.4043 28.0107C26.7062 27.4935 27.1708 27.0908 27.7258 26.8655C28.2807 26.6402 28.8946 26.6051 29.4716 26.7655L34.5129 21.7242C34.6359 21.5969 34.783 21.4953 34.9457 21.4254C35.1084 21.3555 35.2833 21.3187 35.4604 21.3172C35.6374 21.3157 35.813 21.3494 35.9769 21.4164C36.1407 21.4835 36.2896 21.5825 36.4148 21.7077C36.54 21.8329 36.639 21.9817 36.706 22.1456C36.7731 22.3095 36.8068 22.485 36.8053 22.6621C36.8037 22.8391 36.7669 23.0141 36.6971 23.1767C36.6272 23.3394 36.5256 23.4865 36.3983 23.6095L31.3569 28.6509Z" fill="white"/>
</g>
<defs>
<linearGradient id="paint0_linear_238_795" x1="0.789062" y1="0" x2="56.7891" y2="56" gradientUnits="userSpaceOnUse">
<stop stop-color="#14A311"/>
<stop offset="1" stop-color="#CCE847"/>
</linearGradient>
<clipPath id="clip0_238_795">
<rect width="32" height="32" fill="white" transform="translate(12.7891 12)"/>
</clipPath>
</defs>
</svg>
